
<svg xmlns="http://www.w3.org/2000/svg" width="360" height="360" viewBox="0 0 360 360" fill="none">
  <path d="M180 25.6C181.5 27.4 183.3 28.6 185.2 29.8C196.9 36.8 208.8 43.4 220.6 50.2C222.7 51.4 225 52 227.4 52C242.9 51.9 258.5 51.9 274 51.9C281.6 51.9 289.2 51.8 296.8 52.1C299.9 52.2 302.5 53.2 305.1 54.8C308.2 56.6 311.2 58.6 314 60.9C315.5 62.1 316.7 63.6 317.7 65.3C322.2 73.5 323.9 82.2 323.7 91.6C323.5 99.9 322 107.9 318.7 115.6C318 117 316.9 118.2 315.7 119.1C304.2 128.1 292.7 137.1 281.2 146C280.1 146.8 279.1 147.7 278.1 148.6C276.9 149.6 276.2 151 276 152.5C274.5 162.1 272.9 171.8 271.8 181.4C271 189.5 273 196.9 277.6 203.6C278.7 205.3 280.1 206.8 281.9 208C294.5 216.6 307 225.3 319.6 234C324 237.1 324.6 241.2 321.3 245.8C316.5 253.1 310.2 258.7 302.1 262.2C300.1 263 298 263.2 295.9 263.2C284.9 263.2 273.9 263.1 262.8 263.3C260.4 263.3 258.5 264.2 256.7 265.3C254.2 267 251.6 268.5 249 270.1C240 275.6 231 281.1 222 286.6C216.7 290 211.5 293.4 206.3 296.8C203 298.9 199.4 299.9 195.6 300.3C194.7 300.4 193.7 300.1 192.9 299.6C183.6 294.3 174.3 289 164.9 283.7C161.3 281.6 157.7 279.4 154 277.3C147.1 273.3 140.2 269.3 133.4 265.2C132 264.4 130.4 263.8 128.9 263.8C114.1 263.7 99.3 263.8 84.5 263.7C78.7 263.7 73.7 261.6 69.3 258C67.1 256.2 65.1 254 63.5 251.7C61.7 249 60.6 246.5 61.6 243C62.1 241.1 63.1 239.5 64.7 238.4C73.8 231.9 83 225.6 92.1 219.1C101.1 212.7 100.7 212.6 104.1 200.9C107.2 190.3 109.4 179.4 111.5 168.6C111.8 167 112 165.3 112 163.6C112.1 152.4 112 141.2 112 129.9C112 127.9 111.1 126.3 109.8 124.9C98.5 113 87.2 101 75.9 89.1C75.2 88.3 74.6 87.5 74.1 86.5C71 79.9 69.8 72.8 70 65.3C70.2 57.4 71.9 49.9 76.3 43.2C78.3 40.1 80.6 38.7 84.4 38.6C98.3 38.1 112.2 37.8 126.1 37.3C129.6 37.2 132.3 36 134.9 33.7C142.5 27.1 150.3 20.9 158.1 14.5C161.5 11.7 165.1 9.9 169.3 10C173.3 10 176.9 11.6 180 14.3C180 18.1 180 21.9 180 25.6Z" fill="white"/>
  <path d="M172.5 144.5C172.9 148.8 168.2 150.8 164.6 148.3C163.8 147.8 163.2 146.2 163.3 145.1C163.7 140.5 163.3 140.9 168.7 141.3C170.5 141.4 172.2 142.6 172.5 144.5Z" fill="white"/>
  <path d="M194.1 145.6C194.1 149.8 189.5 152.1 186.1 149.6C185.2 148.9 184.8 147.2 184.8 146C184.9 141.8 185 141.3 189.2 140.9C191.6 140.7 194.1 142.6 194.1 145.6Z" fill="white"/>
  <path d="M234.2 178.9C228.9 211.5 203.4 232.4 172.5 227.4C148.1 223.3 134.6 198.1 138.6 177.7C140.2 169.5 137.4 162.5 129.9 158.3C120 152.8 108.7 154.8 102.2 162.4C96.8 168.7 94.6 178.5 97.7 186.6C100.4 193.8 105.3 199.1 111.8 202.5C112.9 203.1 114.1 203.6 115.4 203.9C124.3 206.2 132 202.6 137.6 195.3C138.1 194.7 138.5 194 139.1 193.4C141.6 190.9 143.4 191 145.1 194.3C145.6 195.2 145.8 196.4 145.7 197.4C144.8 207.2 139.8 213.6 130.9 217.1C124.9 219.5 118.8 218.9 112.9 216.5C98.4 210.6 90.1 197.4 90.7 181.5C91.2 167.3 100.2 154.8 113.3 149.9C127.1 144.7 141.1 149.7 149.2 163C158.4 178 175.1 183.1 190.9 176.5C194 175 196.9 173.1 199.5 170.6C208.8 161.5 211.7 148.4 206.6 135.9C201.7 123.8 189.1 115.6 175.8 115.5C162.1 115.4 149.7 124.8 145.1 138.5C144.5 140.3 141.7 141.1 140 139.8C137.3 137.7 138.1 135.9 139.3 133.2C148.4 114.4 171.7 103.6 191.9 110C205.4 114.3 214.4 123.3 218.6 136.9C226.3 162.6 223 169.7 234.2 178.9Z" fill="white"/>
  <path d="M139 244.1C137.5 246.8 136.9 247.1 134 245.3C133.2 244.8 132.8 243.8 132.2 243C129.6 239.9 128.3 236.3 127.4 232.4C126.6 229 127.7 226.1 130.1 223.7C130.5 223.2 131.9 223.2 132.6 223.5C134.5 224.5 137.4 225.3 136.5 228.4C135.8 230.9 134.9 233.4 134.2 235.8C134.9 236.2 135.6 236.5 136.3 236.9C137.3 234.2 138.3 231.5 139.3 228.8C139.8 227.2 141.3 227.6 142.5 228.1C142.9 228.3 143.3 228.9 143.3 229.3C143.1 233 140.7 237.9 139 244.1Z" fill="white"/>
  <path d="M219.2 243.5C217.9 246.4 217 246.7 214.3 244.9C213.7 244.5 213.4 243.6 212.9 242.9C210 238.8 208.7 234.3 207.8 229.5C207.2 226.1 208.4 223.6 211.2 222.1C211.6 221.9 212.7 222.1 213 222.5C214.5 224.4 217.6 225 217 228.3C216.4 231 215.3 233.6 214.4 236.3C215 236.5 215.6 236.7 216.3 236.8C217.2 234.3 218.1 231.8 219.1 229.3C219.6 228.1 220.4 227.3 221.9 228C222.6 228.3 223.6 229.2 223.5 229.7C222.8 232.7 220.8 235.1 219.2 243.5Z" fill="white"/>
  <path d="M133.2 195.3C129.5 195.5 126.4 192.5 126.3 188.8C126.2 185.1 129.2 181.9 132.9 181.8C136.6 181.7 139.9 184.9 139.9 188.6C139.9 192.4 136.8 195.5 133.2 195.3Z" fill="white"/>
  <path d="M226.5 190.4C223 190.4 220.4 187.7 220.3 184.1C220.2 180.4 222.9 177.5 226.6 177.5C230.3 177.5 233.1 180.4 233 184.1C232.9 187.7 230.2 190.4 226.5 190.4Z" fill="white"/>
  <path d="M227.3 208.3C224.2 208.2 222 205.8 222.1 202.6C222.2 199.4 224.7 197.1 227.8 197.2C230.8 197.3 233.2 199.8 233.1 202.8C233 205.8 230.4 208.4 227.3 208.3Z" fill="white"/>
  <path d="M179.8 350.4C177.7 348.4 178.4 346.3 178.3 344.5C178.2 341.3 178.3 338.1 178.3 334.8C178.3 334.6 178.3 334.3 178.4 334.1C179.4 329.8 177.7 326.9 174.3 324.7C173.2 324 172.1 323.2 171.1 322.3C166.3 318.1 164.2 312.8 164.6 306.6C165 301.3 168 297.3 172.4 294.5C175.6 292.5 179.2 291.5 182.8 292.7C186.6 294 189.3 296.6 190.9 300.3C193.3 305.7 193.6 311.4 190.8 316.7C190 318.2 188.8 319.7 187.5 320.8C185.6 322.4 183.4 323.7 181.3 325C179.9 325.9 179 327.1 179.1 328.8C179.4 335.2 179.2 341.6 179.2 348C179.2 348.4 179.2 348.8 179.1 349.3C179 349.7 178.9 350.1 178.8 350.5C178.8 350.4 179.3 350.4 179.8 350.4Z" fill="white"/>
  <path d="M185.1 279.4C185.3 275.2 181.9 266.9 180 263.7C178.7 261.6 178.6 259.9 179.5 257.8C179.9 256.8 180.1 255.5 179.9 254.5C179.6 253 180.4 252 181.1 251C181.9 249.9 183.2 249.7 184.3 250.6C185.2 251.4 185.9 252.5 186 253.7C186.3 256.4 186.1 259.1 186.1 263C186.1 263 186.1 263 186.1 263C186.3 263.7 186.5 264.5 186.6 265.2C187.4 269.6 189 273.7 192.9 276.8C195.5 278.8 194.7 282.9 191.5 283.6C188.1 284.4 185.2 283.2 185.1 279.4Z" fill="white"/>
  <path d="M175 278.3C174.8 282.7 173.6 283.5 170.8 283.6C167.7 283.6 164.7 280.1 165.6 277.3C166.4 274.9 167.6 272.3 169.8 270.5C172.8 267.9 173.1 264.2 173.5 260.7C173.9 257.3 173.9 253.9 174 250.5C174 249 174.3 247.2 176.2 247C178 246.9 178.3 248.7 178.4 250.1C178.4 251.2 177.9 252.2 177.8 253.3C177.7 254.9 177.9 256.6 178 258.3C178.1 260.3 178 262.2 175.9 263.2C175.8 263.3 175.7 263.4 175.7 263.5C176.8 266.5 175.2 284 175 278.3Z" fill="white"/>
</svg>
